<?xml version="1.0" encoding="iso-8859-1"?>
<!-- Uploaded to: SVG Repo, www.svgrepo.com, Generator: SVG Repo Mixer Tools -->
<svg fill="#ee0000" version="1.1" id="Layer_1" xmlns="http://www.w3.org/2000/svg" xmlns:xlink="http://www.w3.org/1999/xlink" 
	 viewBox="0 0 512.001 512.001" xml:space="preserve">
<g>
	<g>
		<path d="M507.174,206.474c0-36.88-14.012-71.461-39.456-97.371c-25.585-26.055-59.9-40.403-96.624-40.403
			c-46.775,0-89.734,23.448-115.093,62.014c-25.36-38.567-68.319-62.014-115.094-62.014c-36.724,0-71.039,14.35-96.624,40.404
			c-25.444,25.911-39.456,60.491-39.456,97.371c0,34.566,10.003,54.769,18.041,71.004l0.874,1.767
			C57.023,346.667,243.1,501.32,251.004,507.871l4.983,4.13l4.994-4.118c0.186-0.154,17.737-14.637,42.731-36.317
			c23.29,20.776,41.808,36.14,42.007,36.304l4.983,4.13l4.994-4.118c4.889-4.031,119.972-99.202,139.664-140.762l0.548-1.153
			c4.754-10.001,11.265-23.696,11.265-44.529c0-18.076-5.289-35.186-15.314-49.802C498.594,257.196,507.174,236.372,507.174,206.474
			z M481.765,359.243l-0.557,1.172c-16.029,33.83-107.926,112.274-130.482,131.218c-7.731-6.52-23.617-20.064-41.7-36.331
			c-27.38-24.629-49.343-46.08-64.856-63.245c-4.309-4.768-8.121-9.206-11.412-13.289c-1.317-1.633-2.55-3.209-3.699-4.727
			c-4.021-5.314-7.005-9.915-8.891-13.738l-0.326-0.659c-4.573-9.255-9.757-19.743-9.757-38.203
			c0-40.114,30.894-71.536,70.333-71.536c26.665,0,50.945,14.681,63.364,38.312l6.932,13.189l6.932-13.189
			c12.419-23.632,36.699-38.312,63.364-38.312c21.955,0,42.218,9.967,55.591,27.343c9.754,12.674,14.909,27.955,14.909,44.193
			C491.513,338.738,486.335,349.632,481.765,359.243z M480.674,258.328c-0.033-0.032-0.07-0.063-0.103-0.096
			c-0.864-0.837-1.748-1.651-2.644-2.447c-0.156-0.139-0.31-0.28-0.467-0.418c-0.899-0.788-1.813-1.555-2.74-2.302
			c-0.184-0.147-0.367-0.293-0.552-0.44c-0.951-0.754-1.914-1.491-2.894-2.202c-0.086-0.063-0.173-0.121-0.26-0.184
			c-0.949-0.683-1.912-1.343-2.886-1.984c-0.15-0.099-0.299-0.201-0.449-0.299c-0.999-0.649-2.013-1.274-3.038-1.879
			c-0.201-0.119-0.404-0.237-0.607-0.355c-1.037-0.601-2.083-1.184-3.144-1.74c-0.126-0.067-0.256-0.129-0.382-0.195
			c-1.027-0.532-2.065-1.043-3.113-1.532c-0.134-0.063-0.266-0.128-0.4-0.19c-1.087-0.501-2.187-0.974-3.296-1.428
			c-0.216-0.089-0.433-0.177-0.65-0.264c-1.107-0.443-2.222-0.867-3.348-1.263c-0.163-0.057-0.328-0.111-0.492-0.168
			c-1.1-0.38-2.209-0.739-3.327-1.075c-0.11-0.033-0.218-0.069-0.328-0.101c-1.16-0.342-2.331-0.656-3.509-0.949
			c-0.228-0.056-0.454-0.114-0.682-0.169c-1.161-0.28-2.329-0.538-3.506-0.769c-0.198-0.039-0.398-0.074-0.597-0.112
			c-1.177-0.223-2.36-0.427-3.55-0.601c-0.067-0.009-0.134-0.022-0.2-0.031c-1.223-0.176-2.453-0.319-3.688-0.444
			c-0.233-0.023-0.466-0.048-0.698-0.07c-1.203-0.112-2.412-0.199-3.626-0.261c-0.223-0.011-0.447-0.019-0.67-0.028
			c-1.266-0.054-2.537-0.091-3.814-0.091c-28.092,0-54.008,13.362-70.297,35.584c-16.288-22.221-42.205-35.584-70.297-35.584
			c-4.359,0-8.664,0.319-12.888,0.948c-18.305,2.722-35.095,11.238-48.226,24.65c-16.044,16.387-24.88,38.263-24.88,61.599
			c0,22.118,6.308,34.884,11.377,45.142l0.323,0.653c0.299,0.606,0.619,1.225,0.957,1.855c0.109,0.201,0.23,0.412,0.342,0.616
			c0.239,0.435,0.477,0.869,0.735,1.316c0.147,0.255,0.308,0.519,0.461,0.778c0.241,0.408,0.479,0.814,0.735,1.232
			c0.176,0.287,0.365,0.583,0.549,0.874c0.252,0.401,0.5,0.8,0.765,1.209c0.201,0.311,0.417,0.631,0.625,0.947
			c0.266,0.403,0.531,0.805,0.811,1.216c0.222,0.328,0.457,0.663,0.687,0.996c0.285,0.411,0.569,0.823,0.867,1.242
			c0.244,0.345,0.499,0.696,0.752,1.047c0.303,0.42,0.606,0.839,0.92,1.267c0.266,0.362,0.543,0.731,0.818,1.098
			c0.321,0.428,0.641,0.857,0.973,1.293c0.287,0.378,0.584,0.76,0.88,1.143c0.338,0.438,0.679,0.876,1.027,1.321
			c0.31,0.395,0.629,0.795,0.948,1.195c0.355,0.446,0.714,0.894,1.081,1.347c0.33,0.408,0.666,0.82,1.004,1.233
			c0.376,0.458,0.756,0.92,1.142,1.385c0.35,0.422,0.705,0.846,1.064,1.274c0.396,0.471,0.798,0.946,1.204,1.424
			c0.369,0.433,0.74,0.869,1.117,1.307c0.415,0.482,0.836,0.969,1.262,1.459c0.39,0.449,0.783,0.9,1.183,1.355
			c0.432,0.493,0.874,0.991,1.317,1.49c0.409,0.461,0.82,0.923,1.238,1.391c0.453,0.505,0.916,1.017,1.379,1.53
			c0.43,0.475,0.86,0.95,1.3,1.431c0.471,0.516,0.952,1.038,1.434,1.56c0.451,0.49,0.9,0.977,1.359,1.472
			c0.489,0.526,0.99,1.06,1.489,1.592c0.473,0.505,0.943,1.008,1.425,1.519c0.505,0.535,1.023,1.077,1.538,1.618
			c0.495,0.52,0.984,1.037,1.489,1.562c0.526,0.548,1.066,1.106,1.602,1.66c0.513,0.53,1.019,1.058,1.541,1.594
			c0.553,0.569,1.123,1.148,1.687,1.724c0.522,0.533,1.037,1.061,1.568,1.6c0.595,0.603,1.207,1.217,1.814,1.828
			c0.521,0.525,1.034,1.044,1.564,1.574c0.632,0.633,1.282,1.277,1.926,1.917c1.029,1.023,2.073,2.057,3.133,3.099
			c0.657,0.647,1.307,1.288,1.975,1.943c0.596,0.583,1.21,1.177,1.815,1.766c0.636,0.618,1.264,1.232,1.91,1.856
			c0.635,0.615,1.287,1.239,1.933,1.861c0.633,0.609,1.259,1.213,1.901,1.828c0.661,0.633,1.337,1.275,2.008,1.914
			c0.649,0.619,1.295,1.234,1.953,1.858c0.671,0.636,1.356,1.281,2.037,1.924c0.678,0.639,1.352,1.276,2.039,1.921
			c0.696,0.654,1.405,1.315,2.111,1.975c0.685,0.64,1.367,1.278,2.06,1.923c0.733,0.682,1.478,1.372,2.222,2.061
			c0.689,0.639,1.378,1.277,2.077,1.921c0.751,0.692,1.512,1.392,2.273,2.091c0.714,0.657,1.429,1.313,2.153,1.975
			c0.761,0.696,1.532,1.399,2.303,2.102c0.461,0.421,0.914,0.835,1.379,1.259c-16.322,14.139-29.276,25.044-35.971,30.638
			C225.692,466.156,66.682,330.854,37.785,272.311l-0.882-1.783c-7.695-15.54-16.415-33.153-16.415-64.055
			c0-68.475,52.894-122.114,120.419-122.114c45.518,0,86.963,25.059,108.162,65.396l6.932,13.19l6.932-13.19
			c21.199-40.337,62.644-65.396,108.162-65.396c67.525,0,120.419,53.639,120.419,122.114
			C491.513,228.979,486.168,245.516,480.674,258.328z"/>
	</g>
</g>
<g>
	<g>
		<rect x="132.263" width="15.661" height="48.755"/>
	</g>
</g>
<g>
	<g>
		
			<rect x="180.238" y="31.801" transform="matrix(0.4198 -0.9076 0.9076 0.4198 82.7462 208.7054)" width="48.754" height="15.661"/>
	</g>
</g>
<g>
	<g>
		<rect x="67.737" y="15.249" transform="matrix(0.9076 -0.4198 0.4198 0.9076 -9.6539 35.3847)" width="15.661" height="48.754"/>
	</g>
</g>
<g>
	<g>
		<path d="M53.911,215.024c0-0.736,0.007-1.471,0.023-2.205l-15.658-0.325c-0.018,0.842-0.026,1.684-0.026,2.53
			c0,10.501,1.068,20.071,3.266,29.256l15.231-3.645C54.838,232.659,53.911,224.281,53.911,215.024z"/>
	</g>
</g>
<g>
	<g>
		<path d="M75.131,128.949c-18.758,17.633-31.327,41.469-35.395,67.119l15.468,2.453c3.526-22.237,14.412-42.892,30.653-58.16
			L75.131,128.949z"/>
	</g>
</g>
<g>
	<g>
		<path d="M260.454,266.837c-21.531,9.985-35.613,31.183-36.749,55.323l15.643,0.736c0.86-18.293,11.473-34.329,27.695-41.851
			L260.454,266.837z"/>
	</g>
</g>
</svg>