<?xml version="1.0" encoding="iso-8859-1"?>
<!-- Uploaded to: SVG Repo, www.svgrepo.com, Generator: SVG Repo Mixer Tools -->
<svg fill="#ffffff" version="1.1" id="Layer_1" xmlns="http://www.w3.org/2000/svg" xmlns:xlink="http://www.w3.org/1999/xlink" 
	 viewBox="0 0 512 512" xml:space="preserve">
<g>
	<g>
		<rect x="224.642" y="153.233" width="15.181" height="39.107"/>
	</g>
</g>
<g>
	<g>
		<rect x="264.429" y="177.429" transform="matrix(0.4198 -0.9076 0.9076 0.4198 -3.1611 365.093)" width="39.106" height="15.18"/>
	</g>
</g>
<g>
	<g>
		
			<rect x="172.883" y="165.462" transform="matrix(0.9076 -0.4198 0.4198 0.9076 -60.9971 92.8563)" width="15.18" height="39.106"/>
	</g>
</g>
<g>
	<g>
		<g>
			<path d="M310.299,77.184V0L71.275,76.877c-0.274,0.088-0.538,0.193-0.796,0.308h-6.56V512h336.63V77.184H310.299z
				 M295.119,20.829v56.355H119.899L295.119,20.829z M385.368,496.819H79.099V92.365h231.201h75.068V496.819z"/>
			<polygon points="310.299,0 310.299,0 310.299,0 			"/>
		</g>
	</g>
</g>
<g>
	<g>
		<path d="M356.291,291.228c0-18.665-7.097-36.172-19.985-49.295c-12.974-13.212-30.371-20.489-48.988-20.489
			c-21.819,0-42,10.075-55.086,26.924c-13.087-16.848-33.268-26.924-55.086-26.924c-18.616,0-36.013,7.276-48.988,20.489
			c-12.887,13.124-19.985,30.631-19.985,49.295c0,17.443,5.221,27.988,9.034,35.688l0.418,0.842
			c16.288,32.997,105.956,107.526,109.766,110.683l4.831,4.004l4.841-3.991c0.083-0.069,7.35-6.067,17.973-15.237
			c9.987,8.835,17.599,15.152,17.687,15.225l4.83,4.004l4.841-3.991c5.934-4.891,58.251-48.383,67.873-68.691l0.26-0.549
			c2.295-4.828,5.764-12.123,5.764-22.961c0-8.684-2.344-16.945-6.8-24.159C352.686,314.972,356.291,305.065,356.291,291.228z
			 M336.818,362.695l-0.269,0.566c-6.293,13.282-41.092,44.327-58.962,59.426c-4.093-3.482-10.403-8.924-17.405-15.223
			c-30.955-27.846-39.385-39.715-41.654-44.312l-0.156-0.317c-2.1-4.25-4.272-8.645-4.272-16.583
			c0-17.045,13.099-30.397,29.82-30.397c11.331,0,21.649,6.239,26.926,16.283l6.719,12.784l6.719-12.785
			c5.278-10.044,15.596-16.282,26.925-16.282c1.163,0,2.316,0.066,3.452,0.196c7.956,0.909,15.15,4.949,20.11,11.393l0.006,0.008
			c4.142,5.387,6.333,11.887,6.333,18.8C341.111,353.664,338.831,358.461,336.818,362.695z M338.129,309.595
			c-0.113-0.085-0.231-0.164-0.345-0.248c-0.164-0.12-0.329-0.238-0.494-0.356c-0.5-0.358-1.006-0.704-1.52-1.04
			c-0.137-0.089-0.27-0.181-0.407-0.269c-0.632-0.404-1.273-0.79-1.924-1.162c-0.145-0.083-0.292-0.16-0.438-0.241
			c-0.534-0.297-1.074-0.582-1.62-0.855c-0.178-0.089-0.355-0.179-0.533-0.266c-0.677-0.328-1.359-0.644-2.052-0.938
			c-0.066-0.027-0.133-0.053-0.198-0.08c-0.636-0.265-1.278-0.514-1.926-0.75c-0.194-0.071-0.389-0.14-0.583-0.207
			c-0.621-0.217-1.247-0.421-1.878-0.61c-0.103-0.031-0.204-0.066-0.308-0.096c-0.725-0.212-1.456-0.401-2.194-0.576
			c-0.188-0.045-0.378-0.085-0.568-0.128c-0.596-0.134-1.195-0.254-1.798-0.363c-0.18-0.032-0.36-0.068-0.54-0.099
			c-0.749-0.126-1.503-0.236-2.262-0.324c-0.147-0.017-0.294-0.028-0.441-0.045c-0.634-0.068-1.27-0.122-1.91-0.163
			c-0.213-0.014-0.425-0.027-0.639-0.038c-0.776-0.039-1.555-0.067-2.338-0.067c-13.011,0-25.131,5.485-33.645,14.816
			c-8.515-9.331-20.635-14.816-33.645-14.816c-12.169,0-23.532,4.762-31.996,13.406c-7.338,7.495-11.791,17.179-12.79,27.643
			c-0.143,1.495-0.215,3.006-0.215,4.528c0,11.485,3.377,18.319,5.842,23.308l0.154,0.311c0.26,0.526,0.555,1.075,0.872,1.638
			c0.034,0.061,0.066,0.119,0.1,0.18c0.308,0.538,0.646,1.096,1.006,1.668c0.058,0.092,0.114,0.183,0.174,0.276
			c0.361,0.565,0.748,1.147,1.159,1.744c0.072,0.104,0.145,0.208,0.218,0.314c0.422,0.606,0.867,1.226,1.339,1.864
			c0.07,0.095,0.143,0.191,0.215,0.286c0.495,0.663,1.012,1.339,1.561,2.035c0.046,0.058,0.093,0.116,0.139,0.174
			c0.567,0.716,1.16,1.45,1.783,2.203c0.023,0.028,0.045,0.055,0.068,0.083c0.622,0.75,1.278,1.522,1.956,2.307
			c0.083,0.096,0.164,0.191,0.248,0.288c0.658,0.759,1.346,1.536,2.055,2.327c0.113,0.127,0.226,0.252,0.341,0.38
			c0.708,0.785,1.441,1.587,2.2,2.405c0.125,0.136,0.253,0.272,0.381,0.408c0.774,0.831,1.572,1.676,2.398,2.539
			c0.107,0.112,0.218,0.226,0.325,0.338c0.864,0.901,1.75,1.815,2.669,2.749c0.048,0.049,0.097,0.098,0.146,0.147
			c0.93,0.944,1.888,1.908,2.873,2.886c0.063,0.063,0.124,0.124,0.187,0.187c0.97,0.962,1.971,1.945,2.995,2.941
			c0.143,0.139,0.283,0.276,0.427,0.416c0.998,0.969,2.023,1.954,3.071,2.954c0.173,0.165,0.346,0.33,0.52,0.496
			c1.049,0.999,2.123,2.013,3.222,3.043c0.175,0.164,0.352,0.329,0.528,0.494c1.123,1.05,2.268,2.113,3.442,3.194
			c0.049,0.045,0.093,0.087,0.142,0.132c-4.677,4.026-8.61,7.359-11.438,9.737c-28.188-23.74-89.379-78.127-100.999-101.666
			l-0.424-0.858c-3.667-7.405-7.457-15.061-7.457-28.951c-0.003-30.618,23.626-54.603,53.79-54.603
			c20.354,0,38.887,11.206,48.367,29.245l6.719,12.785l6.719-12.785c9.48-18.039,28.013-29.245,48.367-29.245
			c30.164,0,53.792,23.984,53.792,54.604C341.112,298.628,339.809,304.626,338.129,309.595z"/>
	</g>
</g>
<g>
	<g>
		<path d="M360.843,25.739V40.92c39.733,0,72.058,32.326,72.058,72.058h15.181C448.082,64.875,408.946,25.739,360.843,25.739z"/>
	</g>
</g>
</svg>